<?xml version="1.0" standalone="no"?>
<!DOCTYPE svg PUBLIC "-//W3C//DTD SVG 20010904//EN"
 "http://www.w3.org/TR/2001/REC-SVG-20010904/DTD/svg10.dtd">
<svg version="1.0" xmlns="http://www.w3.org/2000/svg"
 width="512.000000pt" height="512.000000pt" viewBox="0 0 512.000000 512.000000"
 preserveAspectRatio="xMidYMid meet">

<g transform="translate(0.000000,512.000000) scale(0.100000,-0.100000)"
fill="#000000" stroke="none">
<path d="M2037 4670 c-20 -5 -54 -19 -75 -29 -21 -11 -451 -432 -974 -953
-768 -765 -940 -942 -959 -983 -33 -71 -33 -199 0 -270 19 -41 196 -223 969
-994 1061 -1059 989 -995 1137 -995 97 0 171 29 233 94 67 68 87 120 87 225 0
81 -3 95 -30 144 -22 41 -188 211 -678 695 l-648 641 1893 5 1893 5 63 34 c69
38 110 80 144 151 17 35 22 63 22 130 1 78 -2 90 -33 148 -37 68 -82 110 -158
145 l-48 22 -1890 3 -1889 2 640 643 c510 511 646 652 665 692 18 39 23 67 24
130 0 95 -29 168 -90 230 -73 72 -201 109 -298 85z"/>
</g>
</svg>
